<?xml version="1.0" encoding="UTF-8" standalone="no"?>
<!-- Generator: Adobe Illustrator 12.0.0, SVG Export Plug-In . SVG Version: 6.00 Build 51448)  -->

<svg
        xmlns:dc="http://purl.org/dc/elements/1.1/"
        xmlns:cc="http://creativecommons.org/ns#"
        xmlns:rdf="http://www.w3.org/1999/02/22-rdf-syntax-ns#"
        xmlns:sodipodi="http://sodipodi.sourceforge.net/DTD/sodipodi-0.dtd"
        xmlns:inkscape="http://www.inkscape.org/namespaces/inkscape"
        xmlns="http://www.w3.org/2000/svg"
        version="1.1"
        id="Ebene_1"
        width="175.405"
        height="174.697"
        viewBox="0 0 175.405 174.697"
        overflow="visible"
        enable-background="new 0 0 175.405 174.697"
        xml:space="preserve"
        sodipodi:docname="beide.svg"
        inkscape:version="0.92.4 5da689c313, 2019-01-14"
        inkscape:export-filename="/home/berend/Gits/shogundb/frontend/src/assets/beide.svg.png"
        inkscape:export-xdpi="68.959999"
        inkscape:export-ydpi="68.959999"><metadata
   id="metadata13"><rdf:RDF><cc:Work
       rdf:about=""><dc:format>image/svg+xml</dc:format><dc:type
        rdf:resource="http://purl.org/dc/dcmitype/StillImage"/></cc:Work></rdf:RDF></metadata>
    <defs
            id="defs11"/>
    <sodipodi:namedview
            pagecolor="#ffffff"
            bordercolor="#666666"
            borderopacity="1"
            objecttolerance="10"
            gridtolerance="10"
            guidetolerance="10"
            inkscape:pageopacity="0"
            inkscape:pageshadow="2"
            inkscape:window-width="1920"
            inkscape:window-height="1015"
            id="namedview9"
            showgrid="false"
            inkscape:zoom="3.8209516"
            inkscape:cx="43.983902"
            inkscape:cy="86.13401"
            inkscape:window-x="1920"
            inkscape:window-y="0"
            inkscape:window-maximized="1"
            inkscape:current-layer="Ebene_1"/>
    <g
            id="g6"
            transform="matrix(1.4147748,0,0,1.4147748,-36.148903,-26.260694)">
	<g
            id="g4">
		<path
                d="m 60.091,87.868 c 0,-6.712 2.41,-12.859 6.408,-17.63 -2,-2.182 -3.796,-4.162 -5.344,-5.878 -0.739,0.829 -1.453,1.681 -2.112,2.578 L 48.389,64.729 c -2.157,3.644 -3.822,7.613 -4.899,11.818 l 9.098,5.974 c -0.264,1.744 -0.401,3.529 -0.401,5.348 0,1.878 0.147,3.721 0.43,5.521 l -9.084,5.964 c 1.075,4.131 2.717,8.032 4.835,11.618 l 10.648,-2.208 c 0.573,0.781 1.182,1.533 1.816,2.264 1.898,-1.736 3.839,-3.526 5.812,-5.362 -4.083,-4.797 -6.553,-11.007 -6.553,-17.798 z m 27.47,-27.47 c 6.539,0 12.541,2.289 17.258,6.104 1.97,-2.157 3.747,-4.12 5.308,-5.853 -0.537,-0.446 -1.077,-0.889 -1.641,-1.303 l 2.209,-10.652 c -3.588,-2.124 -7.489,-3.768 -11.621,-4.846 l -5.962,9.081 c -1.809,-0.285 -3.661,-0.435 -5.551,-0.435 -1.819,0 -3.607,0.137 -5.354,0.403 l -5.973,-9.099 c -4.203,1.077 -8.171,2.742 -11.813,4.898 L 66.63,59.35 c -0.505,0.371 -0.986,0.772 -1.47,1.169 1.557,1.729 3.334,3.693 5.307,5.854 4.692,-3.737 10.63,-5.975 17.094,-5.975 z m 0,54.938 c -6.549,0 -12.559,-2.295 -17.279,-6.12 -2.055,1.902 -4.012,3.688 -5.886,5.377 0.71,0.616 1.443,1.209 2.201,1.768 l -2.209,10.657 c 3.683,2.185 7.699,3.867 11.956,4.946 l 5.979,-9.109 c 1.709,0.254 3.458,0.387 5.238,0.387 1.849,0 3.664,-0.143 5.438,-0.415 l 5.969,9.09 c 4.156,-1.073 8.079,-2.722 11.688,-4.85 l -2.209,-10.647 c 0.838,-0.614 1.639,-1.273 2.418,-1.957 -1.871,-1.688 -3.821,-3.468 -5.871,-5.365 -4.744,3.898 -10.815,6.238 -17.433,6.238 z M 115.03,87.868 c 0,6.722 -2.418,12.877 -6.427,17.65 1.973,1.838 3.915,3.631 5.815,5.369 0.591,-0.688 1.156,-1.4 1.693,-2.134 l 10.648,2.206 c 2.143,-3.628 3.797,-7.58 4.87,-11.766 l -9.1,-5.973 c 0.267,-1.746 0.404,-3.533 0.404,-5.354 0,-1.76 -0.132,-3.488 -0.379,-5.179 l 9.115,-5.983 c -1.083,-4.29 -2.775,-8.336 -4.979,-12.044 l -10.66,2.211 c -0.604,-0.818 -1.251,-1.601 -1.921,-2.362 -1.555,1.722 -3.354,3.706 -5.354,5.884 3.922,4.751 6.275,10.838 6.275,17.475 z M 70.467,66.372 c -1.448,1.153 -2.779,2.447 -3.968,3.866 4.762,5.194 10.71,11.555 17.454,18.428 -5.544,5.686 -11.251,11.35 -16.649,16.384 -0.221,0.206 -0.439,0.408 -0.66,0.614 1.101,1.293 2.318,2.483 3.638,3.553 1.853,-1.714 3.774,-3.511 5.775,-5.406 4.041,-3.825 7.941,-7.644 11.645,-11.355 3.704,3.712 7.604,7.529 11.645,11.355 1.954,1.851 3.833,3.608 5.646,5.287 1.312,-1.079 2.52,-2.278 3.611,-3.579 -0.169,-0.156 -0.336,-0.311 -0.505,-0.469 -5.397,-5.034 -11.104,-10.698 -16.649,-16.384 6.676,-6.804 12.57,-13.104 17.309,-18.271 -1.178,-1.427 -2.5,-2.729 -3.939,-3.894 C 99.966,71.816 94.015,78.228 87.703,84.793 81.338,78.174 75.344,71.713 70.467,66.372 Z m 40.396,48.09 c 22.043,19.885 31.789,25.525 32.034,25.655 0.518,0.271 6.051,0.929 5.85,0.729 -0.18,-0.183 -15.125,-12.385 -34.328,-29.959 -1.097,1.278 -2.29,2.466 -3.556,3.575 z m 25.042,-73.978 c 12.845,-15.195 13.196,-15.943 13.196,-15.943 0.611,-0.721 0.52,-1.799 -0.203,-2.411 l -2.604,-2.201 c -0.721,-0.609 -1.8,-0.519 -2.41,0.202 0,0 -2.204,2.94 -13.175,15.918 -9.765,11.55 -12.874,14.968 -13.44,15.581 l -1.946,-1.803 c -0.436,-0.403 -1.338,-0.133 -2.018,0.6 -0.68,0.733 -0.879,1.655 -0.445,2.059 l 2.494,2.31 c -1.146,1.295 -2.949,3.321 -5.229,5.853 1.427,1.184 2.761,2.472 3.985,3.862 2.359,-2.616 4.174,-4.65 5.334,-5.926 l 2.856,2.646 c 0.436,0.402 1.339,0.134 2.019,-0.6 0.68,-0.736 0.879,-1.656 0.443,-2.059 l -2.495,-2.311 c 0.037,-0.037 0.078,-0.069 0.113,-0.11 0.002,0 0.68,-0.471 13.525,-15.667 z M 65.161,60.519 c -2.263,-2.514 -4.047,-4.52 -5.172,-5.791 l 2.493,-2.309 c 0.434,-0.403 0.234,-1.325 -0.445,-2.059 -0.679,-0.733 -1.583,-1.003 -2.018,-0.6 l -1.947,1.803 C 57.364,50.792 54.149,47.234 44.694,36.049 33.723,23.071 31.517,20.131 31.517,20.131 30.907,19.41 29.829,19.319 29.108,19.929 l -2.604,2.201 c -0.723,0.611 -0.812,1.69 -0.203,2.411 0,0 0.353,0.748 13.197,15.943 12.845,15.196 13.523,15.667 13.523,15.667 0.015,0.017 0.033,0.029 0.048,0.046 l -2.491,2.307 c -0.435,0.403 -0.236,1.323 0.444,2.059 0.68,0.733 1.583,1.002 2.019,0.6 l 2.856,-2.645 c 1.134,1.247 2.925,3.253 5.259,5.842 1.231,-1.384 2.571,-2.666 4.005,-3.841 z m -4.329,50.507 c -19.128,17.499 -33.995,29.639 -34.175,29.82 -0.201,0.2 5.33,-0.457 5.849,-0.729 0.245,-0.13 9.949,-5.746 31.89,-25.524 -1.272,-1.102 -2.461,-2.296 -3.564,-3.567 z"
                id="path2"
                inkscape:connector-curvature="0"/>
	</g>
</g>
</svg>