<?xml version="1.0" encoding="UTF-8" standalone="no"?>
<!-- Generator: Adobe Illustrator 12.0.0, SVG Export Plug-In . SVG Version: 6.00 Build 51448)  -->

<svg
   xmlns:dc="http://purl.org/dc/elements/1.1/"
   xmlns:cc="http://creativecommons.org/ns#"
   xmlns:rdf="http://www.w3.org/1999/02/22-rdf-syntax-ns#"
   xmlns:svg="http://www.w3.org/2000/svg"
   xmlns="http://www.w3.org/2000/svg"
   xmlns:sodipodi="http://sodipodi.sourceforge.net/DTD/sodipodi-0.dtd"
   xmlns:inkscape="http://www.inkscape.org/namespaces/inkscape"
   version="1.1"
   id="Ebene_1"
   width="175.405"
   height="174.697"
   viewBox="0 0 175.405 174.697"
   overflow="visible"
   enable-background="new 0 0 175.405 174.697"
   xml:space="preserve"
   sodipodi:docname="logo_white.svg"
   inkscape:version="0.92.4 5da689c313, 2019-01-14"
   inkscape:export-filename="/home/berend/Gits/shogundb/frontend/src/assets/beide.svg.png"
   inkscape:export-xdpi="68.959999"
   inkscape:export-ydpi="68.959999"><metadata
   id="metadata13"><rdf:RDF><cc:Work
       rdf:about=""><dc:format>image/svg+xml</dc:format><dc:type
         rdf:resource="http://purl.org/dc/dcmitype/StillImage" /></cc:Work></rdf:RDF></metadata>
    <defs
   id="defs11" />
    <sodipodi:namedview
   pagecolor="#ffffff"
   bordercolor="#666666"
   borderopacity="1"
   objecttolerance="10"
   gridtolerance="10"
   guidetolerance="10"
   inkscape:pageopacity="0"
   inkscape:pageshadow="2"
   inkscape:window-width="1920"
   inkscape:window-height="1015"
   id="namedview9"
   showgrid="false"
   inkscape:zoom="5.4036416"
   inkscape:cx="46.961978"
   inkscape:cy="73.383909"
   inkscape:window-x="1920"
   inkscape:window-y="0"
   inkscape:window-maximized="1"
   inkscape:current-layer="Ebene_1" />
    <g
   id="g6"
   transform="matrix(1.4147748,0,0,1.4147748,-36.148903,-26.260694)">
	<g
   id="g4">
		<path
   d="m 60.091,87.868 c 0,-6.712 2.41,-12.859 6.408,-17.63 -2,-2.182 -3.796,-4.162 -5.344,-5.878 -0.739,0.829 -1.453,1.681 -2.112,2.578 L 48.389,64.729 c -2.157,3.644 -3.822,7.613 -4.899,11.818 l 9.098,5.974 c -0.264,1.744 -0.401,3.529 -0.401,5.348 0,1.878 0.147,3.721 0.43,5.521 l -9.084,5.964 c 1.075,4.131 2.717,8.032 4.835,11.618 l 10.648,-2.208 c 0.573,0.781 1.182,1.533 1.816,2.264 1.898,-1.736 3.839,-3.526 5.812,-5.362 -4.083,-4.797 -6.553,-11.007 -6.553,-17.798 z m 27.47,-27.47 c 6.539,0 12.541,2.289 17.258,6.104 1.97,-2.157 3.747,-4.12 5.308,-5.853 -0.537,-0.446 -1.077,-0.889 -1.641,-1.303 l 2.209,-10.652 c -3.588,-2.124 -7.489,-3.768 -11.621,-4.846 l -5.962,9.081 c -1.809,-0.285 -3.661,-0.435 -5.551,-0.435 -1.819,0 -3.607,0.137 -5.354,0.403 l -5.973,-9.099 c -4.203,1.077 -8.171,2.742 -11.813,4.898 L 66.63,59.35 c -0.505,0.371 -0.986,0.772 -1.47,1.169 1.557,1.729 3.334,3.693 5.307,5.854 4.692,-3.737 10.63,-5.975 17.094,-5.975 z m 0,54.938 c -6.549,0 -12.559,-2.295 -17.279,-6.12 -2.055,1.902 -4.012,3.688 -5.886,5.377 0.71,0.616 1.443,1.209 2.201,1.768 l -2.209,10.657 c 3.683,2.185 7.699,3.867 11.956,4.946 l 5.979,-9.109 c 1.709,0.254 3.458,0.387 5.238,0.387 1.849,0 3.664,-0.143 5.438,-0.415 l 5.969,9.09 c 4.156,-1.073 8.079,-2.722 11.688,-4.85 l -2.209,-10.647 c 0.838,-0.614 1.639,-1.273 2.418,-1.957 -1.871,-1.688 -3.821,-3.468 -5.871,-5.365 -4.744,3.898 -10.815,6.238 -17.433,6.238 z M 115.03,87.868 c 0,6.722 -2.418,12.877 -6.427,17.65 1.973,1.838 3.915,3.631 5.815,5.369 0.591,-0.688 1.156,-1.4 1.693,-2.134 l 10.648,2.206 c 2.143,-3.628 3.797,-7.58 4.87,-11.766 l -9.1,-5.973 c 0.267,-1.746 0.404,-3.533 0.404,-5.354 0,-1.76 -0.132,-3.488 -0.379,-5.179 l 9.115,-5.983 c -1.083,-4.29 -2.775,-8.336 -4.979,-12.044 l -10.66,2.211 c -0.604,-0.818 -1.251,-1.601 -1.921,-2.362 -1.555,1.722 -3.354,3.706 -5.354,5.884 3.922,4.751 6.275,10.838 6.275,17.475 z M 70.467,66.372 c -1.448,1.153 -2.779,2.447 -3.968,3.866 4.762,5.194 10.71,11.555 17.454,18.428 -5.544,5.686 -11.251,11.35 -16.649,16.384 -0.221,0.206 -0.439,0.408 -0.66,0.614 1.101,1.293 2.318,2.483 3.638,3.553 1.853,-1.714 3.774,-3.511 5.775,-5.406 4.041,-3.825 7.941,-7.644 11.645,-11.355 3.704,3.712 7.604,7.529 11.645,11.355 1.954,1.851 3.833,3.608 5.646,5.287 1.312,-1.079 2.52,-2.278 3.611,-3.579 -0.169,-0.156 -0.336,-0.311 -0.505,-0.469 -5.397,-5.034 -11.104,-10.698 -16.649,-16.384 6.676,-6.804 12.57,-13.104 17.309,-18.271 -1.178,-1.427 -2.5,-2.729 -3.939,-3.894 C 99.966,71.816 94.015,78.228 87.703,84.793 81.338,78.174 75.344,71.713 70.467,66.372 Z m 40.396,48.09 c 22.043,19.885 31.789,25.525 32.034,25.655 0.518,0.271 6.051,0.929 5.85,0.729 -0.18,-0.183 -15.125,-12.385 -34.328,-29.959 -1.097,1.278 -2.29,2.466 -3.556,3.575 z m 25.042,-73.978 c 12.845,-15.195 13.196,-15.943 13.196,-15.943 0.611,-0.721 0.52,-1.799 -0.203,-2.411 l -2.604,-2.201 c -0.721,-0.609 -1.8,-0.519 -2.41,0.202 0,0 -2.204,2.94 -13.175,15.918 -9.765,11.55 -12.874,14.968 -13.44,15.581 l -1.946,-1.803 c -0.436,-0.403 -1.338,-0.133 -2.018,0.6 -0.68,0.733 -0.879,1.655 -0.445,2.059 l 2.494,2.31 c -1.146,1.295 -2.949,3.321 -5.229,5.853 1.427,1.184 2.761,2.472 3.985,3.862 2.359,-2.616 4.174,-4.65 5.334,-5.926 l 2.856,2.646 c 0.436,0.402 1.339,0.134 2.019,-0.6 0.68,-0.736 0.879,-1.656 0.443,-2.059 l -2.495,-2.311 c 0.037,-0.037 0.078,-0.069 0.113,-0.11 0.002,0 0.68,-0.471 13.525,-15.667 z M 65.161,60.519 c -2.263,-2.514 -4.047,-4.52 -5.172,-5.791 l 2.493,-2.309 c 0.434,-0.403 0.234,-1.325 -0.445,-2.059 -0.679,-0.733 -1.583,-1.003 -2.018,-0.6 l -1.947,1.803 C 57.364,50.792 54.149,47.234 44.694,36.049 33.723,23.071 31.517,20.131 31.517,20.131 30.907,19.41 29.829,19.319 29.108,19.929 l -2.604,2.201 c -0.723,0.611 -0.812,1.69 -0.203,2.411 0,0 0.353,0.748 13.197,15.943 12.845,15.196 13.523,15.667 13.523,15.667 0.015,0.017 0.033,0.029 0.048,0.046 l -2.491,2.307 c -0.435,0.403 -0.236,1.323 0.444,2.059 0.68,0.733 1.583,1.002 2.019,0.6 l 2.856,-2.645 c 1.134,1.247 2.925,3.253 5.259,5.842 1.231,-1.384 2.571,-2.666 4.005,-3.841 z m -4.329,50.507 c -19.128,17.499 -33.995,29.639 -34.175,29.82 -0.201,0.2 5.33,-0.457 5.849,-0.729 0.245,-0.13 9.949,-5.746 31.89,-25.524 -1.272,-1.102 -2.461,-2.296 -3.564,-3.567 z"
   id="path2"
   inkscape:connector-curvature="0" />
	</g>
</g>
<path
   style="fill:#ffffff;fill-opacity:1;fill-rule:nonzero;stroke-width:0.26171491"
   d="m 46.758127,60.572702 c -1.990695,-2.223985 -3.707493,-4.043611 -3.815104,-4.043611 -0.10761,0 -1.154893,0.883288 -2.327295,1.962862 -1.172399,1.079574 -2.277998,1.962422 -2.456883,1.961883 -0.555299,-0.0016 -1.976343,-0.987913 -2.437458,-1.691665 -0.797861,-1.217689 -0.576176,-1.78997 1.424464,-3.677272 2.178094,-2.054706 2.386293,-1.323184 -1.684747,-5.919468 C 29.427232,42.35307 4.9409052,13.307407 1.8608874,9.3088769 0.13664797,7.0704408 0.21101107,6.3697457 2.3843172,4.3767979 4.8397563,2.1251308 5.8251368,1.516608 6.8549323,1.6159643 7.8117846,1.7082829 7.0223069,0.8344558 16.634694,12.440613 c 6.919147,8.354294 17.099238,20.377694 23.017538,27.185325 2.742275,3.154351 5.285757,6.085272 5.652181,6.513158 l 0.666222,0.777971 1.623938,-1.503479 c 1.873295,-1.734343 2.397581,-1.772061 3.889801,-0.279841 1.385605,1.385605 1.229097,2.068736 -0.957599,4.179815 -1.007603,0.972757 -1.832005,1.826278 -1.832005,1.89671 0,0.07044 1.599395,1.914285 3.554214,4.097446 l 3.554215,3.96938 -1.525924,1.387657 c -0.83926,0.76321 -2.060023,1.964534 -2.712811,2.669607 l -1.186888,1.281953 z"
   id="path11"
   inkscape:connector-curvature="0" /><path
   style="fill:#ffffff;fill-opacity:1;fill-rule:nonzero;stroke-width:0.26171491"
   d="m 109.67434,65.904737 c -4.06762,-2.857481 -9.40227,-5.10927 -14.585394,-6.156584 -3.292949,-0.665382 -11.617915,-0.661212 -14.726672,0.0074 -5.333235,1.146998 -10.913196,3.478853 -14.575419,6.09104 -0.891292,0.635739 -1.786015,1.219392 -1.988273,1.297006 -0.235812,0.09049 -1.667444,-1.283507 -3.990546,-3.829896 -3.979037,-4.361487 -3.785177,-3.886163 -2.084101,-5.109986 0.517847,-0.372561 0.508252,-0.449792 -0.899648,-7.241319 -0.782692,-3.775607 -1.430437,-7.215 -1.439432,-7.643095 -0.01532,-0.729193 0.165478,-0.873556 2.86251,-2.285628 4.552967,-2.383776 13.020422,-5.511891 13.496535,-4.985998 0.09886,0.109193 2.016744,2.999178 4.26197,6.422189 l 4.08223,6.223656 1.772806,-0.204213 c 2.278618,-0.262479 9.307237,-0.263509 11.862103,-0.0017 l 1.976138,0.202474 4.158287,-6.352774 c 2.287056,-3.494026 4.181406,-6.388383 4.209676,-6.431906 0.10748,-0.165502 7.16625,2.30908 9.43669,3.308206 3.52413,1.550821 6.88681,3.432634 6.76853,3.787787 -0.057,0.171136 -0.77033,3.543899 -1.58519,7.49503 l -1.48158,7.183873 1.12684,0.960879 1.12684,0.96088 -3.61235,3.959564 c -1.9868,2.177758 -3.68787,3.947493 -3.78017,3.932745 -0.0923,-0.01476 -1.16886,-0.730051 -2.39238,-1.589564 z"
   id="path13"
   inkscape:connector-curvature="0" /><path
   style="fill:#ffffff;fill-opacity:1;fill-rule:nonzero;stroke-width:0.26171491"
   d="m 122.57431,62.043118 -2.67206,-2.575544 3.67931,-4.10135 3.67932,-4.10135 -2.03122,-1.89145 c -1.86499,-1.736654 -2.01577,-1.953022 -1.8424,-2.643787 0.26925,-1.072785 1.77781,-2.501146 2.64158,-2.501146 0.47473,0 1.18318,0.427137 2.17572,1.311772 0.80948,0.721478 1.54178,1.280893 1.62732,1.243146 0.71323,-0.314686 22.69843,-26.088436 32.54066,-38.148146 6.14224,-7.5261085 5.70171,-7.0663025 6.77002,-7.0663025 0.99352,0 1.4378,0.2847809 4.1634,2.6687587 1.04128,0.9107671 1.78699,1.7849515 1.86335,2.1843771 0.2423,1.267539 0.008,1.5896726 -9.33738,12.8126207 -9.76945,11.732776 -25.01124,29.610833 -27.64297,32.42415 l -1.56826,1.676475 1.968,1.813392 c 1.0824,0.997364 1.968,2.016236 1.968,2.264158 0,0.698907 -0.70274,1.892259 -1.46949,2.495384 -1.15046,0.90495 -1.81057,0.710171 -3.72482,-1.099098 -0.95762,-0.905102 -1.93433,-1.792106 -2.17047,-1.971119 -0.37266,-0.282519 -0.90555,0.202397 -4.03734,3.67393 -1.9844,2.199675 -3.67555,4.023542 -3.7581,4.05304 -0.0826,0.0295 -1.35253,-1.10536 -2.82217,-2.521911 z"
   id="path15"
   inkscape:connector-curvature="0" /><path
   style="fill:#ffffff;fill-opacity:1;fill-rule:nonzero;stroke-width:0.26171491"
   d="m 135.45326,129.00565 -7.32801,-1.54453 -0.78515,0.96323 c -0.43183,0.52977 -0.9772,1.20083 -1.21194,1.49123 -0.44443,0.54983 -0.78654,0.27321 -7.91228,-6.39736 -0.47223,-0.44207 -0.4321,-0.5338 1.27132,-2.90587 3.05948,-4.26043 5.24899,-9.31346 6.44797,-14.88086 0.79307,-3.68253 0.8641,-11.191433 0.13979,-14.777392 -0.62032,-3.071109 -1.82881,-6.810889 -3.06808,-9.494456 -0.99487,-2.154327 -3.50009,-6.233796 -4.49004,-7.311515 -0.28804,-0.313583 -0.48165,-0.689697 -0.43024,-0.835809 0.0514,-0.146112 1.6834,-2.034617 3.62663,-4.196678 l 3.53315,-3.931018 0.916,1.087505 c 0.5038,0.598128 1.15155,1.343394 1.43944,1.656146 l 0.52343,0.568641 7.19716,-1.527026 c 3.95843,-0.839864 7.3362,-1.530505 7.50614,-1.534758 0.9943,-0.02488 7.61774,15.773294 7.0191,16.741909 -0.0672,0.108807 -2.95231,2.051847 -6.41125,4.317866 l -6.28899,4.120034 0.19979,2.127694 c 0.25739,2.741246 0.25597,8.071127 -0.003,10.833027 l -0.20269,2.16246 6.39437,4.19783 6.39437,4.19784 -0.53025,1.88372 c -0.91564,3.25282 -2.59347,7.4708 -4.3762,11.00154 -0.94555,1.87269 -1.83696,3.4333 -1.98091,3.46802 -0.14394,0.0347 -3.55932,-0.63193 -7.58973,-1.48142 z"
   id="path17"
   inkscape:connector-curvature="0" /><path
   style="fill:#ffffff;fill-opacity:1;fill-rule:nonzero;stroke-width:0.26171491"
   d="m 60.660418,125.64833 -2.4009,-2.32894 3.134502,-2.95404 c 1.723977,-1.62473 7.24966,-7.0459 12.279297,-12.04705 l 9.144795,-9.093002 -5.368484,-5.57978 C 71.532755,87.495766 63.619214,79.109528 60.285226,75.455841 l -2.149577,-2.355701 1.267976,-1.422638 c 0.697387,-0.78245 1.911242,-1.972196 2.697455,-2.643879 l 1.429479,-1.221242 5.20985,5.667867 c 7.718418,8.396972 18.940466,20.21236 19.197347,20.21236 0.257122,0 10.630483,-10.920742 18.700234,-19.687005 l 5.46938,-5.94145 0.68092,0.488315 c 0.3745,0.268573 1.60671,1.44177 2.73822,2.607103 l 2.0573,2.118789 -2.44987,2.662786 c -3.95167,4.2951 -6.95424,7.476674 -14.60572,15.476492 -3.966083,4.146638 -7.241042,7.622528 -7.27769,7.724205 -0.06184,0.171567 15.6892,15.936787 21.4626,21.481917 l 2.55249,2.45157 -1.10639,1.20782 c -0.6085,0.6643 -1.70305,1.75654 -2.43233,2.42721 l -1.32595,1.21938 -5.74703,-5.39401 c -3.16086,-2.9667 -8.657457,-8.27361 -12.214652,-11.79312 l -6.467627,-6.39912 -6.510208,6.3934 c -7.098277,6.97091 -17.9569,17.24037 -18.229465,17.24037 -0.09386,0 -1.251055,-1.04802 -2.57155,-2.32893 z"
   id="path19"
   inkscape:connector-curvature="0" /><path
   style="fill:#ffffff;fill-opacity:1;fill-rule:nonzero;stroke-width:0.26171491"
   d="m 30.701414,127.51926 c -0.868875,-1.69133 -2.114069,-4.42952 -2.767097,-6.08487 -1.195892,-3.03144 -2.443612,-7.00366 -2.246108,-7.15066 0.05858,-0.0436 2.964094,-1.94669 6.456702,-4.2291 4.686876,-3.06285 6.31652,-4.25821 6.221632,-4.56362 -0.418801,-1.34799 -0.635239,-7.76673 -0.378505,-11.225039 0.155035,-2.088378 0.180404,-3.876359 0.05676,-4.000008 -0.122977,-0.122977 -2.929553,-2.001821 -6.236836,-4.17521 -3.307283,-2.173389 -6.049444,-4.109974 -6.09369,-4.303522 -0.243489,-1.065104 2.821197,-9.165719 5.129888,-13.559385 1.341723,-2.553429 1.543544,-2.811771 2.089548,-2.674733 3.278374,0.822819 14.578907,2.975404 14.694789,2.79914 0.08265,-0.125716 0.726779,-0.936197 1.431395,-1.801069 l 1.28112,-1.572493 3.723519,4.08133 3.72352,4.081329 -0.843416,1.050179 c -6.613503,8.234787 -9.477542,19.789989 -7.589128,30.618961 0.94586,5.42396 3.511259,11.48743 6.792772,16.05511 0.96449,1.34251 1.713576,2.47184 1.664638,2.50961 -0.04894,0.0378 -1.841374,1.68587 -3.983191,3.66242 l -3.894213,3.59375 -0.816655,-0.99342 c -0.449161,-0.54638 -1.052199,-1.25684 -1.340086,-1.57879 l -0.52343,-0.58539 -7.328017,1.55214 c -4.03041,0.85367 -7.399593,1.55581 -7.487075,1.56031 -0.08748,0.005 -0.869956,-1.37564 -1.738832,-3.06697 z"
   id="path21"
   inkscape:connector-curvature="0" /><path
   style="fill:#ffffff;fill-opacity:1;fill-rule:nonzero;stroke-width:0.26171491"
   d="m 69.370248,159.61157 c -5.821276,-1.80414 -14.132605,-5.63138 -14.132605,-6.50785 0,-0.26094 0.647744,-3.59192 1.439432,-7.40219 0.791688,-3.81027 1.439432,-7.05041 1.439432,-7.20031 0,-0.1499 -0.618301,-0.76485 -1.374003,-1.36655 -0.755702,-0.6017 -1.374003,-1.17113 -1.374003,-1.26541 0,-0.14095 2.409404,-2.40026 7.226555,-6.77637 l 0.683683,-0.62108 1.976631,1.41816 c 7.108894,5.1004 16.76111,7.74684 25.470085,6.98337 7.273232,-0.63761 13.026425,-2.65751 18.926895,-6.6451 l 2.8109,-1.89963 4.00606,3.66753 4.00606,3.66753 -0.76407,0.67138 c -0.42024,0.36926 -1.16721,0.97703 -1.65993,1.35061 l -0.89586,0.67923 1.49603,7.30307 c 0.82281,4.01669 1.49498,7.45127 1.49371,7.63239 -0.006,0.89556 -14.97642,7.20351 -16.08548,6.77792 -0.17192,-0.066 -2.1695,-2.95442 -4.439058,-6.41877 l -4.126472,-6.29881 -1.219395,0.18802 c -1.528221,0.23565 -12.198021,0.24837 -13.258283,0.0158 -0.780007,-0.17109 -0.812417,-0.13041 -4.952236,6.21572 -2.605484,3.99408 -4.321831,6.38244 -4.58001,6.37324 -0.227107,-0.008 -1.178437,-0.25195 -2.114068,-0.54192 z"
   id="path23"
   inkscape:connector-curvature="0" /><path
   style="fill:#ffffff;fill-opacity:1;fill-rule:nonzero;stroke-width:0.26171491"
   d="m 172.22421,172.81521 c -0.5038,-0.0513 -2.09282,-0.27176 -3.53115,-0.48994 l -2.61515,-0.39667 -3.4043,-2.28089 c -8.94254,-5.99151 -21.95096,-16.43412 -36.71383,-29.47232 l -5.04432,-4.45502 2.41635,-2.42644 c 2.37213,-2.38204 2.42613,-2.41783 2.95061,-1.95549 0.29384,0.25903 2.4186,2.17602 4.72169,4.25997 10.85973,9.82646 24.96463,22.15017 35.59323,31.09848 6.97493,5.87225 7.46117,6.31105 6.92949,6.25345 -0.21264,-0.023 -0.79882,-0.0838 -1.30262,-0.13513 z"
   id="path25"
   inkscape:connector-curvature="0" /><path
   style="fill:#000000;fill-opacity:1;fill-rule:nonzero;stroke-width:0.26171491"
   d="m 7.765897,167.99246 c 11.173509,-9.41349 23.43364,-20.10828 35.011698,-30.54153 l 7.057957,-6.36008 2.444357,2.4342 c 1.888443,1.88059 2.364887,2.49375 2.094933,2.69607 -0.192182,0.14403 -1.87269,1.62797 -3.734462,3.29763 -13.095767,11.74449 -28.927598,24.46215 -37.843964,30.39993 -3.2504839,2.16463 -3.6170813,2.27852 -9.4796725,2.94502 l -1.5407795,0.17517 z"
   id="path27"
   inkscape:connector-curvature="0" /><path
   style="fill:#ffffff;fill-opacity:1;fill-rule:nonzero;stroke-width:0.26171491"
   d="m 3.709353,171.38215 c 15.079004,-12.71281 27.143692,-23.19878 39.070038,-33.95754 l 7.03951,-6.35034 2.448349,2.43817 2.44835,2.43817 -1.505554,1.33944 c -16.311756,14.51204 -30.809178,26.23652 -40.06538,32.40202 -3.3141943,2.20756 -3.3955379,2.24412 -5.8241405,2.61765 -1.3546513,0.20835 -3.1647223,0.45868 -4.0223798,0.5563 l -1.5593774,0.17749 z"
   id="path37"
   inkscape:connector-curvature="0" /><path
   style="fill:none;fill-opacity:1;fill-rule:nonzero;stroke-width:0.26171491"
   d="m 52.587755,133.24223 c -1.133539,-1.17067 -2.06098,-2.23593 -2.06098,-2.36726 0,-0.25078 7.308349,-7.08515 7.576525,-7.08515 0.08524,0 1.178418,1.03051 2.42929,2.29001 l 2.274312,2.29 -3.767338,3.39653 c -2.072036,1.8681 -3.907624,3.4433 -4.079084,3.50045 -0.171459,0.0572 -1.239186,-0.85391 -2.372725,-2.02458 z"
   id="path24"
   inkscape:connector-curvature="0" /><path
   style="fill:none;fill-opacity:1;fill-rule:nonzero;stroke-width:0.26171491"
   d="m 52.587755,133.24223 c -1.133539,-1.17067 -2.06098,-2.23593 -2.06098,-2.36726 0,-0.25078 7.308349,-7.08515 7.576525,-7.08515 0.08524,0 1.178418,1.03051 2.42929,2.29001 l 2.274312,2.29 -3.767338,3.39653 c -2.072036,1.8681 -3.907624,3.4433 -4.079084,3.50045 -0.171459,0.0572 -1.239186,-0.85391 -2.372725,-2.02458 z"
   id="path26"
   inkscape:connector-curvature="0" /><path
   style="fill:none;fill-opacity:1;fill-rule:nonzero;stroke-width:0.26171491"
   d="m 57.529735,72.154868 c -0.216221,-0.1735 -1.843152,-1.895697 -3.615403,-3.827106 l -3.222274,-3.511651 2.539426,-2.442363 c 1.396684,-1.3433 2.629887,-2.442363 2.74045,-2.442363 0.193839,0 6.578077,6.897943 6.928668,7.486181 0.0976,0.163754 -0.943793,1.321365 -2.40274,2.670889 -2.139837,1.979345 -2.641435,2.328558 -2.968127,2.066413 z"
   id="path28"
   inkscape:connector-curvature="0" /><path
   style="fill:none;fill-opacity:1;fill-rule:nonzero;stroke-width:0.26171491"
   d="m 57.529735,72.154868 c -0.216221,-0.1735 -1.843152,-1.895697 -3.615403,-3.827106 l -3.222274,-3.511651 2.539426,-2.442363 c 1.396684,-1.3433 2.629887,-2.442363 2.74045,-2.442363 0.193839,0 6.578077,6.897943 6.928668,7.486181 0.0976,0.163754 -0.943793,1.321365 -2.40274,2.670889 -2.139837,1.979345 -2.641435,2.328558 -2.968127,2.066413 z"
   id="path30"
   inkscape:connector-curvature="0" /><path
   style="fill:none;fill-opacity:1;fill-rule:nonzero;stroke-width:0.26171491"
   d="m 57.529735,72.154868 c -0.216221,-0.1735 -1.843152,-1.895697 -3.615403,-3.827106 l -3.222274,-3.511651 2.539426,-2.442363 c 1.396684,-1.3433 2.629887,-2.442363 2.74045,-2.442363 0.193839,0 6.578077,6.897943 6.928668,7.486181 0.0976,0.163754 -0.943793,1.321365 -2.40274,2.670889 -2.139837,1.979345 -2.641435,2.328558 -2.968127,2.066413 z"
   id="path32"
   inkscape:connector-curvature="0" /><path
   style="fill:none;fill-opacity:1;fill-rule:nonzero;stroke-width:0.26171491"
   d="m 57.529735,72.154868 c -0.216221,-0.1735 -1.843152,-1.895697 -3.615403,-3.827106 l -3.222274,-3.511651 2.539426,-2.442363 c 1.396684,-1.3433 2.629887,-2.442363 2.74045,-2.442363 0.193839,0 6.578077,6.897943 6.928668,7.486181 0.0976,0.163754 -0.943793,1.321365 -2.40274,2.670889 -2.139837,1.979345 -2.641435,2.328558 -2.968127,2.066413 z"
   id="path34"
   inkscape:connector-curvature="0" /><path
   style="fill:none;fill-opacity:1;fill-rule:nonzero;stroke-width:0.26171491"
   d="m 57.529735,72.154868 c -0.216221,-0.1735 -1.843152,-1.895697 -3.615403,-3.827106 l -3.222274,-3.511651 2.539426,-2.442363 c 1.396684,-1.3433 2.629887,-2.442363 2.74045,-2.442363 0.193839,0 6.578077,6.897943 6.928668,7.486181 0.0976,0.163754 -0.943793,1.321365 -2.40274,2.670889 -2.139837,1.979345 -2.641435,2.328558 -2.968127,2.066413 z"
   id="path36"
   inkscape:connector-curvature="0" /><path
   style="fill:none;fill-opacity:1;fill-rule:nonzero;stroke-width:0.26171491"
   d="m 109.69427,65.786495 c -4.29998,-2.878854 -9.834408,-5.218112 -14.545103,-6.147828 -2.921799,-0.576654 -12.770952,-0.495962 -15.44118,0.126507 -4.669243,1.088467 -9.908945,3.320917 -13.882305,5.914753 -1.861067,1.214917 -2.046302,1.281762 -2.567471,0.926507 -0.999237,-0.681134 -6.447258,-6.792345 -6.448792,-7.233808 -8.18e-4,-0.235345 0.292943,-0.620818 0.652801,-0.856606 0.368543,-0.241479 0.656887,-0.68324 0.66024,-1.011531 0.0033,-0.320554 -0.601723,-3.676668 -1.344439,-7.458032 -1.328886,-6.765712 -1.342528,-6.88395 -0.856527,-7.424137 1.442875,-1.603747 15.08142,-7.094078 15.788126,-6.355666 0.126989,0.132686 2.000171,2.940365 4.162627,6.239287 l 3.931737,5.998039 8.077373,0.0214 8.077372,0.0214 4.044371,-6.210759 c 2.22441,-3.415917 4.1848,-6.212995 4.35644,-6.215729 0.17164,-0.0027 1.9971,0.586643 4.05658,1.309727 3.80007,1.334203 10.06577,4.21723 11.13555,5.123783 l 0.58644,0.496965 -1.54309,7.328017 -1.54308,7.328017 1.0875,0.956933 1.0875,0.956932 -0.66853,0.744215 c -2.78912,3.104906 -6.3607,6.894515 -6.49785,6.894515 -0.0915,0 -1.15629,-0.662809 -2.36629,-1.472908 z"
   id="path38"
   inkscape:connector-curvature="0" /><path
   style="fill:none;fill-opacity:1;fill-rule:nonzero;stroke-width:0.26171491"
   d="m 109.69427,65.786495 c -4.29998,-2.878854 -9.834408,-5.218112 -14.545103,-6.147828 -2.921799,-0.576654 -12.770952,-0.495962 -15.44118,0.126507 -4.669243,1.088467 -9.908945,3.320917 -13.882305,5.914753 -1.861067,1.214917 -2.046302,1.281762 -2.567471,0.926507 -0.999237,-0.681134 -6.447258,-6.792345 -6.448792,-7.233808 -8.18e-4,-0.235345 0.292943,-0.620818 0.652801,-0.856606 0.368543,-0.241479 0.656887,-0.68324 0.66024,-1.011531 0.0033,-0.320554 -0.601723,-3.676668 -1.344439,-7.458032 -1.328886,-6.765712 -1.342528,-6.88395 -0.856527,-7.424137 1.442875,-1.603747 15.08142,-7.094078 15.788126,-6.355666 0.126989,0.132686 2.000171,2.940365 4.162627,6.239287 l 3.931737,5.998039 8.077373,0.0214 8.077372,0.0214 4.044371,-6.210759 c 2.22441,-3.415917 4.1848,-6.212995 4.35644,-6.215729 0.17164,-0.0027 1.9971,0.586643 4.05658,1.309727 3.80007,1.334203 10.06577,4.21723 11.13555,5.123783 l 0.58644,0.496965 -1.54309,7.328017 -1.54308,7.328017 1.0875,0.956933 1.0875,0.956932 -0.66853,0.744215 c -2.78912,3.104906 -6.3607,6.894515 -6.49785,6.894515 -0.0915,0 -1.15629,-0.662809 -2.36629,-1.472908 z"
   id="path40"
   inkscape:connector-curvature="0" /><path
   style="fill:none;fill-opacity:1;fill-rule:nonzero;stroke-width:0.26171491"
   d="m 86.214534,91.744908 c -0.84368,-0.927293 -4.242713,-4.552186 -7.553407,-8.055316 -10.357698,-10.959754 -14.827338,-15.8913 -14.65524,-16.169759 0.359278,-0.581324 4.20073,-2.963775 6.970955,-4.323353 1.606005,-0.788201 2.744927,-1.43309 2.530939,-1.43309 -0.632131,0 -5.411401,2.431263 -7.632421,3.882692 -1.908292,1.247061 -2.095671,1.315819 -2.617149,0.960352 -0.999237,-0.681134 -6.447258,-6.792345 -6.448792,-7.233808 -8.18e-4,-0.235345 0.292943,-0.620818 0.652801,-0.856606 0.368543,-0.241479 0.656887,-0.68324 0.66024,-1.011531 0.0033,-0.320554 -0.601723,-3.676668 -1.344439,-7.458032 -1.328886,-6.765712 -1.342528,-6.88395 -0.856527,-7.424137 1.442875,-1.603747 15.08142,-7.094078 15.788126,-6.355666 0.126989,0.132686 2.000171,2.940365 4.162627,6.239287 l 3.931737,5.998039 8.077373,0.0214 8.077372,0.0214 4.044371,-6.210759 c 2.22441,-3.415917 4.1848,-6.212995 4.35644,-6.215729 0.17164,-0.0027 1.9971,0.586643 4.05658,1.309727 3.80007,1.334203 10.06577,4.21723 11.13555,5.123783 l 0.58644,0.496965 -1.54309,7.328017 -1.54308,7.328017 1.08374,0.947596 1.08373,0.947596 -1.4785,1.669553 c -0.81318,0.918254 -2.41262,2.668755 -3.5543,3.889998 l -2.0758,2.220447 -2.46138,-1.619652 C 105.1251,62.785212 99.889886,60.574302 95.149167,59.63866 92.75055,59.165262 82.403475,59.14426 80.362274,59.60865 c -2.46283,0.560309 -6.019443,1.703183 -6.019443,1.934275 0,0.121254 6.071699,0.220463 13.492663,0.220463 h 13.492666 l 1.88308,0.798 c 2.97263,1.259709 8.52802,4.70772 8.54919,5.306136 0.0143,0.402588 -23.509759,25.563368 -23.900406,25.563368 -0.06134,0 -0.80181,-0.758694 -1.64549,-1.685986 z"
   id="path42"
   inkscape:connector-curvature="0" /><path
   style="fill:none;fill-opacity:1;fill-rule:nonzero;stroke-width:0.26171491;stroke:none"
   d="m 60.765981,125.52398 -2.192251,-2.20422 7.819122,-7.67433 c 15.075016,-14.79589 16.562436,-16.284129 16.452655,-16.461758 -0.06086,-0.09847 -2.028299,1.760728 -4.372092,4.131558 -7.247681,7.33127 -20.164603,19.67744 -20.421199,19.51886 -0.722695,-0.44665 -3.540273,-4.72863 -4.903605,-7.45219 -2.948068,-5.88942 -4.043671,-10.64944 -4.028364,-17.501853 0.011,-4.924812 0.459606,-7.886721 1.823388,-12.038886 0.958456,-2.918111 3.551746,-7.951781 5.366681,-10.416923 l 1.599778,-2.172907 2.00064,2.170716 c 8.930899,9.690126 15.995946,17.055668 16.18168,16.869931 0.08197,-0.08197 -2.133063,-2.538768 -4.922286,-5.459561 C 66.609981,82.057169 60.612136,75.643194 58.915016,73.727051 l -0.640924,-0.723639 1.949498,-1.975278 c 1.072224,-1.086405 2.259943,-2.200606 2.639374,-2.476006 l 0.689877,-0.500726 7.945581,8.553222 c 4.370071,4.704274 9.850094,10.502989 12.177828,12.886034 l 4.232244,4.332808 1.224716,-1.177717 c 2.66717,-2.564817 10.072538,-10.450792 10.072538,-10.726244 0,-0.161 -1.030503,0.801452 -2.290006,2.138781 -4.916861,5.220676 -8.83499,9.24175 -9.005146,9.24175 -0.258617,0 -10.543664,-10.859441 -21.158452,-22.340097 l -2.990933,-3.234912 1.1688,-1.010146 c 0.64284,-0.555581 1.297762,-1.013663 1.455382,-1.017958 0.157619,-0.0043 0.498369,-0.241833 0.757221,-0.527861 0.258852,-0.286028 0.865964,-0.663002 1.349137,-0.837721 0.483174,-0.174718 0.878497,-0.414805 0.878497,-0.533529 0,-0.28936 -1.177954,0.337175 -3.570908,1.899312 -1.836078,1.198605 -2.020115,1.26446 -2.541129,0.90931 -0.999237,-0.681134 -6.447259,-6.792345 -6.448792,-7.233808 -8.18e-4,-0.235345 0.292943,-0.620818 0.652801,-0.856606 0.368543,-0.241479 0.656887,-0.68324 0.66024,-1.011531 0.0033,-0.320554 -0.601723,-3.676668 -1.344439,-7.458032 -1.328886,-6.765712 -1.342527,-6.88395 -0.856527,-7.424137 1.442875,-1.603747 15.08142,-7.094078 15.788126,-6.355666 0.126989,0.132686 2.000171,2.940365 4.162626,6.239287 l 3.931738,5.998039 8.077373,0.0214 8.077372,0.0214 4.044371,-6.210759 c 2.22441,-3.415917 4.1848,-6.212995 4.35644,-6.215729 0.17164,-0.0027 1.9971,0.586643 4.05658,1.309727 3.80007,1.334203 10.06577,4.21723 11.13555,5.123783 l 0.58644,0.496965 -1.54309,7.328017 -1.54308,7.328017 1.08374,0.947596 1.08373,0.947596 -1.4785,1.669553 c -0.81318,0.918254 -2.41269,2.668836 -3.55447,3.890181 l -2.07597,2.220628 -1.0872,-0.719481 c -0.59797,-0.395713 -1.08721,-0.615218 -1.08721,-0.487787 0,0.127432 0.4114,0.51186 0.91421,0.854287 0.50282,0.342426 0.91502,0.720808 0.91601,0.840849 0.002,0.202664 -7.66139,8.605707 -10.95869,12.016917 -0.80003,0.827673 -1.318544,1.504861 -1.152255,1.504861 0.166291,0 3.028375,-2.944293 6.360195,-6.542873 3.33182,-3.59858 6.1387,-6.542873 6.23751,-6.542873 0.0988,0 1.28481,1.109771 2.63555,2.466156 l 2.4559,2.466157 -0.72655,0.870708 c -0.39961,0.478891 -3.09701,3.383285 -5.99423,6.454211 -6.11815,6.484984 -7.37576,7.894816 -7.04238,7.894816 0.20574,0 11.5412,-11.983156 13.46262,-14.231855 l 0.64386,-0.75354 1.32074,1.8004 c 4.57891,6.241853 6.99641,13.22895 7.33343,21.19522 0.37923,8.963962 -2.01407,16.917082 -7.33438,24.372712 -0.74302,1.04124 -1.42085,1.89508 -1.50628,1.89744 -0.21996,0.006 -14.13377,-13.44011 -19.582875,-18.92468 l -4.558738,-4.588405 4.755025,-4.890685 c 2.615268,-2.689874 4.749948,-5.024188 4.743738,-5.18736 -0.011,-0.288915 -5.316993,5.104161 -8.289847,8.425886 l -1.482306,1.656257 11.956493,11.939827 11.95649,11.93983 -0.98226,1.15891 c -0.54025,0.63739 -1.58852,1.67961 -2.32949,2.31605 l -1.34723,1.15715 -5.06243,-4.77819 c -2.78433,-2.628 -8.251341,-7.93617 -12.148909,-11.79593 l -7.086492,-7.01775 -7.569543,7.36836 c -9.025846,8.78595 -16.754221,16.03912 -17.195817,16.13848 -0.175393,0.0395 -1.305409,-0.92014 -2.511148,-2.13246 z M 79.83054,95.908847 c -1.357206,-1.362875 -2.585536,-2.477953 -2.729623,-2.477953 -0.144085,0 0.90753,1.173906 2.33692,2.608682 1.429393,1.434776 2.657725,2.549857 2.729626,2.477956 0.0719,-0.0719 -0.979714,-1.24581 -2.336923,-2.608685 z m 28.66609,-30.902289 c -0.61748,-0.476818 -2.18122,-1.30869 -1.89986,-1.01068 0.24514,0.259645 2.11726,1.415236 2.29243,1.41503 0.072,-8.7e-5 -0.10469,-0.182044 -0.39257,-0.40435 z M 70.417108,63.313893 c 0,-0.124026 -0.176658,-0.157712 -0.392573,-0.07486 -0.215914,0.08286 -0.392572,0.25212 -0.392572,0.376145 0,0.124026 0.176658,0.157712 0.392572,0.07486 0.215915,-0.08286 0.392573,-0.252121 0.392573,-0.376145 z m 34.954352,-0.119394 c -0.27942,-0.211337 -0.63273,-0.380075 -0.78515,-0.374975 -0.15242,0.0051 0.0173,0.177584 0.37717,0.383298 0.84776,0.484625 1.05414,0.480414 0.40798,-0.0083 z m -2.0366,-0.921857 c -1.26564,-0.668291 -5.131378,-1.95993 -7.426409,-2.481348 -2.056349,-0.467191 -11.923477,-0.831308 -12.849809,-0.474184 -0.33973,0.130974 1.040803,0.184804 3.373463,0.131536 6.136252,-0.140124 11.390937,0.720529 15.629295,2.559887 1.9994,0.8677 2.6864,1.01018 1.27346,0.264109 z M 81.599969,59.511551 c -0.08697,-0.08697 -0.312697,-0.09626 -0.501621,-0.02066 -0.208778,0.08355 -0.146765,0.145562 0.15812,0.15812 0.275889,0.01136 0.430466,-0.05049 0.343501,-0.137458 z"
   id="path44"
   inkscape:connector-curvature="0" /></svg>